<?xml version="1.0" encoding="utf-8"?>
<!-- Generator: Adobe Illustrator 16.0.0, SVG Export Plug-In . SVG Version: 6.00 Build 0)  -->
<!DOCTYPE svg PUBLIC "-//W3C//DTD SVG 1.1//EN" "http://www.w3.org/Graphics/SVG/1.1/DTD/svg11.dtd">
<svg version="1.1" id="Layer_1" xmlns="http://www.w3.org/2000/svg" xmlns:xlink="http://www.w3.org/1999/xlink" x="0px" y="0px"
	 width="612px" height="792px" viewBox="0 0 612 792" enable-background="new 0 0 612 792" xml:space="preserve">
<g id="chromecast">
	<path fill="#3B5998" d="M306,141C165.75,141,51,255.75,51,396s114.75,255,255,255s255-114.75,255-255S446.25,141,306,141z M306,192
		c76.5,0,140.25,40.8,175.95,102H306c-48.45,0-91.8,35.7-99.45,81.6l-61.2-104.55C183.6,222.6,239.7,192,306,192z M382.5,396
		c0,43.35-33.15,76.5-76.5,76.5c-43.35,0-76.5-33.15-76.5-76.5c0-43.35,33.15-76.5,76.5-76.5C349.35,319.5,382.5,352.65,382.5,396z
		 M102,396c0-38.25,10.2-71.4,28.05-102l89.25,153l0,0c17.85,30.6,51,51,86.7,51c12.75,0,22.95-2.55,33.15-5.1l-61.2,104.55
		C178.5,584.7,102,498,102,396z M306,600l89.25-153l0,0c7.65-15.3,15.3-33.15,15.3-51c0-30.6-12.75-58.65-35.7-76.5h122.4
		c10.2,22.95,15.3,48.45,15.3,76.5C510,508.2,418.2,600,306,600z"/>
</g>
</svg>
