<?xml version="1.0" encoding="utf-8"?>
<!-- Generator: Adobe Illustrator 16.0.4, SVG Export Plug-In . SVG Version: 6.00 Build 0)  -->
<!DOCTYPE svg PUBLIC "-//W3C//DTD SVG 1.1//EN" "http://www.w3.org/Graphics/SVG/1.1/DTD/svg11.dtd">
<svg version="1.1" id="Layer_1" xmlns="http://www.w3.org/2000/svg" xmlns:xlink="http://www.w3.org/1999/xlink" x="0px" y="0px"
	 width="50px" height="50px" viewBox="0 0 50 50" enable-background="new 0 0 50 50" xml:space="preserve">
<path d="M39.916,13.528H33.75v-7.5c0-0.828-0.671-1.5-1.5-1.5H19.981c-0.375,0-0.736,0.141-1.013,0.394l-9.897,9.063
	c-0.31,0.285-0.487,0.687-0.487,1.106v19.881c0,0.828,0.671,1.5,1.5,1.5h6.166v7.5c0,0.828,0.671,1.5,1.5,1.5h22.166
	c0.829,0,1.5-0.672,1.5-1.5V15.028C41.416,14.2,40.744,13.528,39.916,13.528z M18.845,9.104v5.574h-6.088L18.845,9.104z
	 M11.584,33.473V17.678h8.761c0.829,0,1.5-0.672,1.5-1.5v-8.65h8.905v6h-3.103c-0.375,0-0.736,0.142-1.013,0.395l-9.897,9.064
	c-0.31,0.283-0.487,0.686-0.487,1.105v9.38H11.584z M26.512,18.104v5.572h-6.086L26.512,18.104z M38.416,42.473H19.25V26.676h8.762
	c0.828,0,1.5-0.672,1.5-1.5v-8.648h8.904V42.473z"/>
</svg>
