<?xml version="1.0" encoding="utf-8"?>
<!-- Generator: Adobe Illustrator 16.0.0, SVG Export Plug-In . SVG Version: 6.00 Build 0)  -->
<!DOCTYPE svg PUBLIC "-//W3C//DTD SVG 1.1//EN" "http://www.w3.org/Graphics/SVG/1.1/DTD/svg11.dtd">
<svg version="1.1" id="Layer_1" xmlns="http://www.w3.org/2000/svg" xmlns:xlink="http://www.w3.org/1999/xlink" x="0px" y="0px"
	 width="64px" height="64px" viewBox="0 0 64 64" enable-background="new 0 0 64 64" xml:space="preserve">
<path d="M54.624,47.446c-1.681-2.928-4.358-5.073-7.348-5.889c-2.034-0.556-4.099-0.452-5.896,0.28l-5.271-9.222
	c4.684-8.6,11.623-21.324,12.499-22.854c2.141-3.744-1.374-7.9-1.525-8.074l-1.021-1.185l-14.156,24.76L17.749,0.504l-1.021,1.185
	c-0.152,0.174-3.667,4.33-1.526,8.074c0.875,1.529,7.815,14.253,12.5,22.854l-5.272,9.222c-1.798-0.732-3.862-0.836-5.897-0.28
	c-2.989,0.815-5.667,2.961-7.347,5.889c-3.157,5.519-1.884,12.207,2.836,14.908c1.318,0.758,2.779,1.143,4.342,1.143
	c0.858,0,1.75-0.068,2.598-0.356c5.06-1.722,7.652-5.859,8.893-10.105c0.053-0.182,2.55-10.299,3.944-12.503
	c0,0,0.043-0.079,0.107-0.197c0.063,0.118,0.107,0.197,0.107,0.197c1.394,2.204,3.891,12.321,3.944,12.503
	c1.24,4.246,3.833,8.384,8.893,10.105c0.848,0.288,1.739,0.356,2.598,0.356c1.563,0,3.023-0.385,4.342-1.143
	C56.508,59.653,57.78,52.965,54.624,47.446z M22.224,54.914c-1.048,1.829-2.731,3.21-4.494,3.689
	c-0.464,0.125-0.921,0.189-1.359,0.189c-0.732,0-1.407-0.178-2.005-0.521c-2.469-1.41-2.961-5.22-1.093-8.488
	c1.064-1.854,2.703-3.196,4.491-3.683c1.221-0.331,2.403-0.225,3.371,0.328C23.602,47.843,24.091,51.65,22.224,54.914z
	 M49.443,58.272c-0.599,0.343-1.273,0.521-2.005,0.521c-0.438,0-0.896-0.064-1.359-0.189c-1.763-0.479-3.446-1.86-4.494-3.689
	c-1.867-3.264-1.378-7.071,1.088-8.484c0.969-0.553,2.15-0.659,3.371-0.328c1.789,0.486,3.428,1.829,4.491,3.683
	C52.404,53.053,51.912,56.862,49.443,58.272z"/>
</svg>
