<?xml version="1.0" encoding="utf-8"?>
<!-- Generator: Adobe Illustrator 16.0.0, SVG Export Plug-In . SVG Version: 6.00 Build 0)  -->
<!DOCTYPE svg PUBLIC "-//W3C//DTD SVG 1.1//EN" "http://www.w3.org/Graphics/SVG/1.1/DTD/svg11.dtd">
<svg version="1.1" id="Layer_1" xmlns="http://www.w3.org/2000/svg" xmlns:xlink="http://www.w3.org/1999/xlink" x="0px" y="0px"
	 width="612px" height="792px" viewBox="0 0 612 792" enable-background="new 0 0 612 792" xml:space="preserve">
<path fill="none" stroke="#000000" stroke-width="6" stroke-miterlimit="10" d="M407.448,302.842
	c-1.529-26.067-42.936-38.336-42.936-38.336s0-70.542-38.336-81.271c0,0-7.669,61.334-95.07,101.209
	c-41.406,36.806,3.07,65.943,41.406,72.073C272.502,356.517,407.448,379.514,407.448,302.842z"/>
<path fill="none" stroke="#000000" stroke-width="6" stroke-miterlimit="10" d="M201.96,333.509
	c-7.669,10.738-64.403,50.604-26.067,92.01c99.68,98.14,231.556,39.866,272.952-4.6c41.405-44.466-27.607-90.471-27.607-90.471
	s-24.537,50.604-111.938,50.604C221.898,381.054,201.96,333.509,201.96,333.509z"/>
<path fill="none" stroke="#000000" stroke-width="6" stroke-miterlimit="10" d="M474.922,410.19
	c-4.6-1.529-21.468,87.411-170.213,87.411c0,0-121.147,10.729-165.613-87.411c0,0-79.742,70.543-13.799,133.407
	c65.943,62.863,276.022,99.679,380.3-18.398C543.925,471.524,479.521,411.721,474.922,410.19z"/>
</svg>
