<?xml version="1.0" encoding="utf-8"?>
<!-- Generator: Adobe Illustrator 16.0.0, SVG Export Plug-In . SVG Version: 6.00 Build 0)  -->
<!DOCTYPE svg PUBLIC "-//W3C//DTD SVG 1.1//EN" "http://www.w3.org/Graphics/SVG/1.1/DTD/svg11.dtd">
<svg version="1.1" id="Layer_1" xmlns="http://www.w3.org/2000/svg" xmlns:xlink="http://www.w3.org/1999/xlink" x="0px" y="0px"
	 width="126px" height="126px" viewBox="0 0 126 126" enable-background="new 0 0 126 126" xml:space="preserve">
<path stroke="#6D6E70" stroke-width="0" stroke-linecap="round" stroke-linejoin="round" d="M100.517,25.488
	C79.828,4.799,46.17,4.799,25.486,25.483C4.798,46.169,4.8,79.829,25.488,100.516c20.682,20.685,54.34,20.685,75.026-0.004
	C121.2,79.829,121.198,46.171,100.517,25.488z M94.728,94.727c-17.493,17.494-45.962,17.496-63.455,0.003
	c-17.498-17.497-17.495-45.966,0-63.46c17.493-17.493,45.96-17.495,63.457,0.002C112.224,48.766,112.222,77.235,94.728,94.727z
	 M88.517,71.036c0.265,0.404,0.31,0.914,0.118,1.356c-4.285,9.904-14.318,16.304-25.563,16.304c-11.486,0-21.58-6.431-25.714-16.382
	c-0.185-0.443-0.135-0.948,0.131-1.347c0.267-0.398,0.714-0.638,1.192-0.638c0,0,0.001,0,0.002,0l48.638,0.06
	C87.803,70.389,88.252,70.633,88.517,71.036z M43.93,52.283c-0.744-1.023-1.189-2.279-1.189-3.643c0-3.424,2.777-6.201,6.2-6.201
	c3.424,0,6.2,2.777,6.2,6.201c0,1.315-0.412,2.533-1.11,3.537c-1.127-1.549-2.949-2.561-5.011-2.561
	C46.911,49.617,45.05,50.674,43.93,52.283z M72.048,52.283c-0.744-1.023-1.189-2.279-1.189-3.643c0-3.424,2.777-6.201,6.2-6.201
	c3.424,0,6.2,2.777,6.2,6.201c0,1.315-0.412,2.533-1.11,3.537c-1.127-1.549-2.949-2.561-5.011-2.561
	C75.029,49.617,73.168,50.674,72.048,52.283z"/>
</svg>
